<svg width="441" height="487" viewBox="0 0 441 487" fill="none" xmlns="http://www.w3.org/2000/svg">
<g filter="url(#filter0_d_39_2)">
<rect x="169.049" y="12.7117" width="199.97" height="439.641" rx="20" transform="rotate(5.83757 169.049 12.7117)" fill="black" fill-opacity="0.77"/>
<rect x="179.554" y="25.61" width="177.915" height="416.115" rx="12" transform="rotate(5.83757 179.554 25.61)" fill="url(#paint0_linear_39_2)"/>
<rect x="128.078" y="80.9466" width="269.078" height="223.496" rx="19" transform="rotate(5.83757 128.078 80.9466)" fill="url(#paint1_linear_39_2)"/>
<rect x="323.094" y="284.161" width="74.9889" height="77.9296" rx="11" transform="rotate(5.83757 323.094 284.161)" fill="url(#paint2_linear_39_2)"/>
<rect x="363.364" y="136.041" width="66.1667" height="69.1074" rx="10" transform="rotate(5.83757 363.364 136.041)" fill="url(#paint3_linear_39_2)"/>
<rect x="65.7678" y="271.155" width="67.637" height="70.5778" rx="9" transform="rotate(5.83757 65.7678 271.155)" fill="url(#paint4_linear_39_2)"/>
<rect x="42.1729" y="24.8667" width="82.3407" height="85.2815" rx="11" transform="rotate(5.83757 42.1729 24.8667)" fill="url(#paint5_linear_39_2)"/>
</g>
<defs>
<filter id="filter0_d_39_2" x="-12" y="-6" width="463.656" height="501.739" filterUnits="userSpaceOnUse" color-interpolation-filters="sRGB">
<feFlood flood-opacity="0" result="BackgroundImageFix"/>
<feColorMatrix in="SourceAlpha" type="matrix" values="0 0 0 0 0 0 0 0 0 0 0 0 0 0 0 0 0 0 127 0" result="hardAlpha"/>
<feOffset dy="6"/>
<feGaussianBlur stdDeviation="6"/>
<feComposite in2="hardAlpha" operator="out"/>
<feColorMatrix type="matrix" values="0 0 0 0 0 0 0 0 0 0 0 0 0 0 0 0 0 0 0.43 0"/>
<feBlend mode="normal" in2="BackgroundImageFix" result="effect1_dropShadow_39_2"/>
<feBlend mode="normal" in="SourceGraphic" in2="effect1_dropShadow_39_2" result="shape"/>
</filter>
<linearGradient id="paint0_linear_39_2" x1="338.354" y1="43.8607" x2="192.404" y2="442.392" gradientUnits="userSpaceOnUse">
<stop stop-color="#7E5CDB"/>
<stop offset="1" stop-color="#65CBF1"/>
</linearGradient>
<linearGradient id="paint1_linear_39_2" x1="383.922" y1="101.133" x2="131.853" y2="300.564" gradientUnits="userSpaceOnUse">
<stop stop-color="#FDC952"/>
<stop offset="1" stop-color="#FB6199"/>
</linearGradient>
<linearGradient id="paint2_linear_39_2" x1="394.395" y1="291.2" x2="312.801" y2="342.796" gradientUnits="userSpaceOnUse">
<stop stop-color="#FDC952"/>
<stop offset="1" stop-color="#FB6199"/>
</linearGradient>
<linearGradient id="paint3_linear_39_2" x1="426.277" y1="142.283" x2="354.076" y2="187.711" gradientUnits="userSpaceOnUse">
<stop stop-color="#FDC952"/>
<stop offset="1" stop-color="#FB6199"/>
</linearGradient>
<linearGradient id="paint4_linear_39_2" x1="130.078" y1="277.53" x2="56.3118" y2="323.986" gradientUnits="userSpaceOnUse">
<stop stop-color="#FDC952"/>
<stop offset="1" stop-color="#FB6199"/>
</linearGradient>
<linearGradient id="paint5_linear_39_2" x1="120.464" y1="32.5695" x2="31.0434" y2="89.3061" gradientUnits="userSpaceOnUse">
<stop stop-color="#FDC952"/>
<stop offset="1" stop-color="#FB6199"/>
</linearGradient>
</defs>
</svg>
